<svg version="1.2" xmlns="http://www.w3.org/2000/svg" viewBox="0 0 197 197" width="197" height="197">
	<title>Basic_Elements_(310)-ai</title>
	<style>
		.s0 { fill: #1976d2 } 
		.s1 { fill: #fffffe } 
	</style>
	<g id="Layer 1">
		<path id="&lt;Path&gt;" class="s0" d="m0 98.6c0-54.2 44.2-98.4 98.4-98.4 54.2 0 98.4 44.2 98.4 98.4 0 54.2-44.2 98.4-98.4 98.4-54.2 0-98.4-44.2-98.4-98.4z"/>
		<path id="&lt;Compound Path&gt;" fill-rule="evenodd" class="s1" d="m92 83.4l-3.6 2.1 17 29.4 3.5-2q0-0.1 0.1-0.1l0.9 1.6-0.9-1.6c5.4-3.1 11.6-3.7 17.3-2.2 5.6 1.5 10.7 5.1 13.8 10.6 3.1 5.4 3.8 11.6 2.2 17.2-1.4 5.6-5 10.6-10.4 13.8q-0.1 0-0.1 0.1c-16.3 9.4-34.9 1.2-49.8-14.3-5.7-5.9-10.9-12.9-15.2-20.3q0 0 0-0.1l1.5-0.9-1.5 0.9c-4.4-7.5-7.8-15.5-10.1-23.4-6-20.7-3.8-40.8 12.5-50.2 5.5-3.1 11.7-3.8 17.3-2.3 5.6 1.5 10.7 5.2 13.8 10.6 3.2 5.4 3.8 11.7 2.3 17.3-1.5 5.6-5.1 10.6-10.4 13.7q-0.1 0.1-0.2 0.1zm-6.8-0.2l5-2.9 0.9 1.6-0.9-1.6q0.1 0 0.2-0.1c4.4-2.6 7.5-6.8 8.7-11.5 1.3-4.8 0.8-10-1.9-14.6-2.6-4.5-6.9-7.6-11.6-8.9-4.8-1.3-10-0.7-14.6 1.9-14.5 8.4-16.4 27-10.8 46.1 2.1 7.7 5.5 15.4 9.7 22.6q0 0.1 0 0.1c4.2 7.2 9.2 13.9 14.7 19.6 13.8 14.4 30.8 22.1 45.4 13.7l0.9 1.5-0.9-1.6q0 0 0.1 0c4.5-2.7 7.5-6.9 8.8-11.6 1.2-4.8 0.7-10-1.9-14.6-2.6-4.5-6.9-7.6-11.7-8.9-4.7-1.2-10-0.7-14.5 1.9q-0.1 0.1-0.1 0.1l-5.1 2.9-0.9-1.5 0.9 1.5c-0.8 0.5-1.9 0.2-2.4-0.6q-0.1-0.1-0.1-0.2l-18.7-32.4 1.6-0.9-1.6 0.9c-0.5-0.8-0.2-1.9 0.7-2.4q0 0 0.1-0.1z"/>
	</g>
</svg>